<svg xmlns="http://www.w3.org/2000/svg" width="100" height="100" viewBox="0 0 100 100" fill="none">
  <path d="M50 5L61.7 30.1L89.4 34.5L69.7 54.9L74.4 82.5L50 69.5L25.6 82.5L30.3 54.9L10.6 34.5L38.3 30.1L50 5Z" fill="#FFD700" stroke="#003087" stroke-width="2"/>
  <path d="M50 15L58.5 32.7L78.5 36L64.2 50.8L67.7 70.7L50 61.3L32.3 70.7L35.8 50.8L21.5 36L41.5 32.7L50 15Z" fill="#003087"/>
  <path d="M50 25L55.3 35.3L67.1 37.4L58.5 45.7L60.7 57.4L50 51.8L39.3 57.4L41.5 45.7L32.9 37.4L44.7 35.3L50 25Z" fill="#FFD700"/>
  <path d="M30 70C30 70 35 75 50 75C65 75 70 70 70 70" stroke="#FFD700" stroke-width="2" stroke-linecap="round"/>
  <path d="M25 65C25 65 35 80 50 80C65 80 75 65 75 65" stroke="#FFD700" stroke-width="2" stroke-linecap="round"/>
  <path d="M20 60C20 60 35 85 50 85C65 85 80 60 80 60" stroke="#FFD700" stroke-width="2" stroke-linecap="round"/>
</svg>
